<?xml version="1.0" encoding="UTF-8"?>
<svg width="181px" height="41px" viewBox="0 0 181 41" version="1.1" xmlns="http://www.w3.org/2000/svg" xmlns:xlink="http://www.w3.org/1999/xlink">
    <title>Logo</title>
    <defs>
        <polygon id="path-1" points="0 0 6.248 0 6.248 6.998 0 6.998"></polygon>
        <polygon id="path-3" points="0 40.217 180.117 40.217 180.117 0 0 0"></polygon>
    </defs>
    <g id="Design" stroke="none" stroke-width="1" fill="none" fill-rule="evenodd">
        <g id="Overview-vA" transform="translate(-1185.000000, -48.000000)">
            <g id="Logo" transform="translate(1185.000000, 48.000000)">
                <polygon id="Fill-1" fill="#000000" points="52 8.001 72 8.001 72 0.001 52 0.001"></polygon>
                <polygon id="Fill-2" fill="#000000" points="13 26.001 21 26.001 21 0.001 13 0.001"></polygon>
                <polygon id="Fill-3" fill="#000000" points="26 38.001 34 38.001 34 0 26 0"></polygon>
                <polygon id="Fill-4" fill="#000000" points="0 38.001 8 38.001 8 0 0 0"></polygon>
                <polygon id="Fill-5" fill="#000000" points="52 38.001 60 38.001 60 13.001 52 13.001"></polygon>
                <polygon id="Fill-6" fill="#000000" points="39 8.001 47 8.001 47 0.001 39 0.001"></polygon>
                <polygon id="Fill-7" fill="#A31F34" points="39 38.001 47 38.001 47 13.001 39 13.001"></polygon>
                <g id="Group-57" transform="translate(0.000000, 0.001000)">
                    <path d="M89.032,0.019 L92.294,0.019 L93.868,6.63 L93.893,6.63 L95.517,0.019 L98.742,0.019 L98.742,8.917 L96.642,8.917 L96.642,2.006 L96.617,2.006 L94.855,8.917 L92.893,8.917 L91.081,2.006 L91.056,2.006 L91.056,8.917 L89.032,8.917 C89.032,8.917 89.032,0.019 89.032,0.019" id="Fill-8" fill="#000000"></path>
                    <path d="M104.168,5.68 L102.856,6.055 C102.369,6.193 101.918,6.38 101.918,6.917 C101.918,7.442 102.356,7.667 102.831,7.667 C103.593,7.667 104.167,7.154 104.167,6.142 L104.167,5.68 L104.168,5.68 Z M106.043,7.529 C106.043,7.991 106.056,8.504 106.218,8.916 L104.418,8.916 C104.344,8.691 104.307,8.454 104.293,8.228 L104.269,8.228 C103.944,8.753 102.969,9.09 102.27,9.09 C100.995,9.09 100.045,8.39 100.045,7.115 C100.045,5.515 101.332,4.953 103.456,4.654 L104.168,4.554 L104.168,4.004 C104.168,3.504 103.769,3.292 103.244,3.292 C102.619,3.292 102.318,3.517 102.219,4.179 L100.344,4.179 C100.406,2.267 102.182,2.092 103.081,2.092 C104.893,2.092 106.031,2.517 106.043,4.016 C106.043,4.016 106.043,7.529 106.043,7.529 L106.043,7.529 Z" id="Fill-10" fill="#000000"></path>
                    <path d="M112.155,4.23 C111.767,3.768 110.93,3.518 110.318,3.518 C109.831,3.518 109.48,3.693 109.48,4.03 C109.48,5.167 113.418,4.23 113.418,6.717 C113.418,8.467 111.868,9.091 110.418,9.091 C108.969,9.091 108.145,8.679 107.17,7.779 L108.381,6.729 C108.982,7.304 109.594,7.667 110.481,7.667 C110.806,7.667 111.543,7.592 111.543,6.992 C111.543,5.954 107.606,6.779 107.606,4.417 C107.606,2.743 109.068,2.093 110.418,2.093 C111.443,2.093 112.455,2.455 113.356,3.055 L112.155,4.23 Z" id="Fill-12" fill="#000000"></path>
                    <path d="M119.105,4.23 C118.718,3.768 117.88,3.518 117.268,3.518 C116.781,3.518 116.431,3.693 116.431,4.03 C116.431,5.167 120.367,4.23 120.367,6.717 C120.367,8.467 118.818,9.091 117.369,9.091 C115.919,9.091 115.094,8.679 114.119,7.779 L115.332,6.729 C115.932,7.304 116.544,7.667 117.432,7.667 C117.756,7.667 118.494,7.592 118.494,6.992 C118.494,5.954 114.557,6.779 114.557,4.417 C114.557,2.743 116.02,2.093 117.369,2.093 C118.393,2.093 119.406,2.455 120.305,3.055 L119.105,4.23 Z" id="Fill-14" fill="#000000"></path>
                    <path d="M125.48,5.68 L124.168,6.055 C123.681,6.193 123.23,6.38 123.23,6.917 C123.23,7.442 123.668,7.667 124.143,7.667 C124.905,7.667 125.479,7.154 125.479,6.142 L125.479,5.68 L125.48,5.68 Z M127.355,7.529 C127.355,7.991 127.368,8.504 127.53,8.916 L125.73,8.916 C125.656,8.691 125.619,8.454 125.605,8.228 L125.581,8.228 C125.256,8.753 124.281,9.09 123.582,9.09 C122.307,9.09 121.357,8.39 121.357,7.115 C121.357,5.515 122.644,4.953 124.768,4.654 L125.48,4.554 L125.48,4.004 C125.48,3.504 125.081,3.292 124.556,3.292 C123.931,3.292 123.63,3.517 123.531,4.179 L121.656,4.179 C121.718,2.267 123.494,2.092 124.393,2.092 C126.205,2.092 127.343,2.517 127.355,4.016 C127.355,4.016 127.355,7.529 127.355,7.529 L127.355,7.529 Z" id="Fill-16" fill="#000000"></path>
                    <path d="M133.468,4.505 C133.118,3.755 132.518,3.593 132.219,3.593 C131.106,3.593 130.706,4.455 130.706,5.593 C130.706,6.731 131.182,7.593 132.219,7.593 C132.819,7.593 133.293,7.368 133.606,6.618 L135.005,7.33 C134.405,8.392 133.318,9.092 132.043,9.092 C130.057,9.092 128.682,7.83 128.682,5.593 C128.682,3.394 130.144,2.094 131.981,2.094 C133.244,2.094 134.331,2.556 134.968,3.719 L133.468,4.505 Z" id="Fill-18" fill="#000000"></path>
                    <path d="M136.107,0.019 L138.056,0.019 L138.056,2.894 L138.08,2.894 C138.455,2.381 139.292,2.094 139.905,2.094 C141.304,2.094 141.991,2.906 141.991,4.243 L141.991,8.917 L140.042,8.917 L140.042,4.93 C140.042,3.905 139.492,3.668 139.067,3.668 C138.618,3.668 138.055,3.955 138.055,5.192 L138.055,8.917 L136.106,8.917 L136.106,0.019 L136.107,0.019 Z" id="Fill-20" fill="#000000"></path>
                    <path d="M149.63,8.917 L147.681,8.917 L147.681,8.33 C147.181,8.917 146.356,9.092 145.756,9.092 C144.182,9.092 143.744,8.18 143.744,7.18 L143.744,2.268 L145.693,2.268 L145.693,6.617 C145.693,7.204 145.906,7.517 146.642,7.517 C147.204,7.517 147.68,7.205 147.68,6.479 L147.68,2.268 L149.629,2.268 L149.629,8.917 L149.63,8.917 Z" id="Fill-22" fill="#000000"></path>
                    <path d="M155.692,4.23 C155.304,3.768 154.467,3.518 153.855,3.518 C153.368,3.518 153.017,3.693 153.017,4.03 C153.017,5.167 156.955,4.23 156.955,6.717 C156.955,8.467 155.405,9.091 153.955,9.091 C152.506,9.091 151.682,8.679 150.707,7.779 L151.918,6.729 C152.519,7.304 153.131,7.667 154.018,7.667 C154.343,7.667 155.08,7.592 155.08,6.992 C155.08,5.954 151.143,6.779 151.143,4.417 C151.143,2.743 152.605,2.093 153.955,2.093 C154.98,2.093 155.992,2.455 156.893,3.055 L155.692,4.23 Z" id="Fill-24" fill="#000000"></path>
                    <path d="M162.43,4.793 C162.368,3.818 161.668,3.519 161.106,3.519 C160.544,3.519 159.87,3.918 159.782,4.793 L162.43,4.793 Z M159.807,5.992 C159.819,7.267 160.631,7.667 161.256,7.667 C161.981,7.667 162.318,7.292 162.881,6.492 L164.342,7.254 C163.668,8.504 162.606,9.091 161.118,9.091 C159.056,9.091 157.856,7.667 157.856,5.792 C157.856,3.442 159.093,2.093 161.118,2.093 C163.543,2.093 164.367,3.943 164.38,5.992 L159.807,5.992 Z" id="Fill-26" fill="#000000"></path>
                    <path d="M169.03,3.593 L167.867,3.593 L167.867,6.855 C167.867,7.38 168.131,7.518 168.48,7.518 C168.693,7.518 168.967,7.493 169.068,7.48 L169.068,9.017 C168.818,9.042 168.242,9.092 167.818,9.092 C166.156,9.092 165.918,8.055 165.918,7.092 L165.918,3.593 L164.969,3.593 L164.969,2.393 L165.918,2.393 L165.918,0.469 L167.867,0.469 L167.867,2.393 L169.03,2.393 L169.03,3.593 Z" id="Fill-28" fill="#000000"></path>
                    <path d="M173.43,3.593 L172.268,3.593 L172.268,6.855 C172.268,7.38 172.531,7.518 172.881,7.518 C173.093,7.518 173.367,7.493 173.467,7.48 L173.467,9.017 C173.218,9.042 172.643,9.092 172.218,9.092 C170.556,9.092 170.319,8.055 170.319,7.092 L170.319,3.593 L169.37,3.593 L169.37,2.393 L170.319,2.393 L170.319,0.469 L172.268,0.469 L172.268,2.393 L173.43,2.393 L173.43,3.593 Z" id="Fill-30" fill="#000000"></path>
                    <g id="Group-34" transform="translate(173.869000, 2.093000)">
                        <mask id="mask-2" fill="white">
                            <use xlink:href="#path-1"></use>
                        </mask>
                        <g id="Clip-33"></g>
                        <path d="M4.985,2.137 C4.597,1.675 3.76,1.425 3.148,1.425 C2.661,1.425 2.31,1.6 2.31,1.937 C2.31,3.074 6.248,2.137 6.248,4.624 C6.248,6.374 4.698,6.998 3.248,6.998 C1.799,6.998 0.975,6.586 0,5.686 L1.211,4.636 C1.812,5.211 2.424,5.574 3.311,5.574 C3.636,5.574 4.373,5.499 4.373,4.899 C4.373,3.861 0.436,4.686 0.436,2.324 C0.436,0.65 1.898,0 3.248,0 C4.273,0 5.285,0.362 6.186,0.962 L4.985,2.137 Z" id="Fill-32" fill="#000000" mask="url(#mask-2)"></path>
                    </g>
                    <mask id="mask-4" fill="white">
                        <use xlink:href="#path-3"></use>
                    </mask>
                    <g id="Clip-36"></g>
                    <polygon id="Fill-35" fill="#000000" mask="url(#mask-4)" points="89.082 23.467 91.307 23.467 91.307 14.569 89.082 14.569"></polygon>
                    <path d="M93.044,16.818 L94.994,16.818 L94.994,17.405 C95.494,16.818 96.318,16.643 96.918,16.643 C98.492,16.643 98.93,17.555 98.93,18.555 L98.93,23.467 L96.98,23.467 L96.98,19.305 C96.98,18.655 96.781,18.218 96.031,18.218 C95.244,18.218 94.994,18.73 94.994,19.33 L94.994,23.467 L93.044,23.467 C93.044,23.467 93.044,16.818 93.044,16.818" id="Fill-37" fill="#000000" mask="url(#mask-4)"></path>
                    <path d="M104.992,18.78 C104.605,18.318 103.767,18.068 103.156,18.068 C102.668,18.068 102.318,18.243 102.318,18.58 C102.318,19.717 106.255,18.78 106.255,21.268 C106.255,23.017 104.705,23.641 103.256,23.641 C101.807,23.641 100.982,23.229 100.006,22.329 L101.219,21.279 C101.819,21.853 102.432,22.217 103.319,22.217 C103.643,22.217 104.381,22.142 104.381,21.542 C104.381,20.504 100.443,21.329 100.443,18.967 C100.443,17.293 101.906,16.643 103.255,16.643 C104.28,16.643 105.292,17.005 106.192,17.605 L104.992,18.78 Z" id="Fill-38" fill="#000000" mask="url(#mask-4)"></path>
                    <path d="M110.918,18.143 L109.756,18.143 L109.756,21.405 C109.756,21.93 110.019,22.067 110.369,22.067 C110.581,22.067 110.855,22.042 110.955,22.03 L110.955,23.567 C110.706,23.592 110.131,23.641 109.706,23.641 C108.044,23.641 107.807,22.604 107.807,21.642 L107.807,18.143 L106.858,18.143 L106.858,16.943 L107.807,16.943 L107.807,15.019 L109.756,15.019 L109.756,16.943 L110.918,16.943 C110.918,16.943 110.918,18.143 110.918,18.143" id="Fill-39" fill="#000000" mask="url(#mask-4)"></path>
                    <path d="M112.031,23.467 L113.98,23.467 L113.98,16.818 L112.031,16.818 L112.031,23.467 Z M112.031,16.068 L113.98,16.068 L113.98,14.568 L112.031,14.568 L112.031,16.068 Z" id="Fill-40" fill="#000000" mask="url(#mask-4)"></path>
                    <path d="M119.018,18.143 L117.856,18.143 L117.856,21.405 C117.856,21.93 118.119,22.067 118.469,22.067 C118.681,22.067 118.955,22.042 119.055,22.03 L119.055,23.567 C118.806,23.592 118.231,23.641 117.806,23.641 C116.144,23.641 115.907,22.604 115.907,21.642 L115.907,18.143 L114.958,18.143 L114.958,16.943 L115.907,16.943 L115.907,15.019 L117.856,15.019 L117.856,16.943 L119.018,16.943 C119.018,16.943 119.018,18.143 119.018,18.143" id="Fill-41" fill="#000000" mask="url(#mask-4)"></path>
                    <path d="M126.018,23.467 L124.069,23.467 L124.069,22.879 C123.569,23.467 122.744,23.641 122.143,23.641 C120.569,23.641 120.131,22.729 120.131,21.729 L120.131,16.818 L122.08,16.818 L122.08,21.167 C122.08,21.754 122.293,22.066 123.03,22.066 C123.592,22.066 124.068,21.754 124.068,21.029 L124.068,16.818 L126.017,16.818 L126.017,23.467 L126.018,23.467 Z" id="Fill-42" fill="#000000" mask="url(#mask-4)"></path>
                    <path d="M131.055,18.143 L129.893,18.143 L129.893,21.405 C129.893,21.93 130.156,22.067 130.506,22.067 C130.718,22.067 130.992,22.042 131.092,22.03 L131.092,23.567 C130.843,23.592 130.268,23.641 129.843,23.641 C128.181,23.641 127.944,22.604 127.944,21.642 L127.944,18.143 L126.995,18.143 L126.995,16.943 L127.944,16.943 L127.944,15.019 L129.893,15.019 L129.893,16.943 L131.055,16.943 L131.055,18.143 Z" id="Fill-43" fill="#000000" mask="url(#mask-4)"></path>
                    <path d="M136.268,19.342 C136.206,18.367 135.505,18.068 134.943,18.068 C134.381,18.068 133.706,18.467 133.618,19.342 L136.268,19.342 Z M133.643,20.542 C133.655,21.817 134.468,22.217 135.092,22.217 C135.818,22.217 136.154,21.842 136.717,21.042 L138.18,21.805 C137.504,23.054 136.443,23.641 134.955,23.641 C132.893,23.641 131.693,22.217 131.693,20.342 C131.693,17.993 132.93,16.643 134.955,16.643 C137.379,16.643 138.204,18.493 138.217,20.542 C138.217,20.542 133.643,20.542 133.643,20.542 L133.643,20.542 Z" id="Fill-44" fill="#000000" mask="url(#mask-4)"></path>
                    <path d="M144.53,20.142 C144.53,21.279 145.005,22.142 146.117,22.142 C147.229,22.142 147.704,21.28 147.704,20.067 C147.704,19.005 147.229,18.143 146.117,18.143 C145.005,18.143 144.53,19.005 144.53,20.142 M149.654,20.142 C149.654,22.379 148.191,23.641 146.117,23.641 C144.043,23.641 142.58,22.379 142.58,20.142 C142.58,17.905 144.043,16.643 146.117,16.643 C148.191,16.643 149.654,17.905 149.654,20.142" id="Fill-45" fill="#000000" mask="url(#mask-4)"></path>
                    <path d="M151.18,18.143 L150.157,18.143 L150.157,16.943 L151.18,16.943 L151.18,16.293 C151.18,15.543 151.418,14.468 153.08,14.468 C153.505,14.468 154.104,14.53 154.354,14.618 L154.354,16.042 L153.804,16.042 C153.466,16.042 153.129,16.142 153.129,16.517 L153.129,16.942 L154.329,16.942 L154.329,18.142 L153.129,18.142 L153.129,23.466 L151.179,23.466 L151.179,18.143 L151.18,18.143 Z" id="Fill-46" fill="#000000" mask="url(#mask-4)"></path>
                    <polygon id="Fill-47" fill="#000000" mask="url(#mask-4)" points="86.77 29.119 93.644 29.119 93.644 30.844 91.319 30.844 91.319 38.017 89.095 38.017 89.095 30.844 86.77 30.844"></polygon>
                    <path d="M97.844,33.893 C97.782,32.918 97.081,32.618 96.519,32.618 C95.957,32.618 95.282,33.018 95.194,33.893 L97.844,33.893 Z M95.219,35.092 C95.232,36.367 96.044,36.768 96.668,36.768 C97.394,36.768 97.73,36.393 98.293,35.592 L99.756,36.355 C99.08,37.604 98.019,38.192 96.531,38.192 C94.469,38.192 93.269,36.768 93.269,34.893 C93.269,32.543 94.506,31.194 96.531,31.194 C98.955,31.194 99.78,33.044 99.793,35.092 L95.219,35.092 Z" id="Fill-48" fill="#000000" mask="url(#mask-4)"></path>
                    <path d="M105.468,33.606 C105.118,32.856 104.518,32.694 104.219,32.694 C103.106,32.694 102.706,33.555 102.706,34.693 C102.706,35.831 103.182,36.692 104.219,36.692 C104.819,36.692 105.293,36.467 105.606,35.717 L107.005,36.43 C106.405,37.492 105.318,38.192 104.043,38.192 C102.057,38.192 100.682,36.93 100.682,34.693 C100.682,32.494 102.144,31.194 103.981,31.194 C105.244,31.194 106.331,31.657 106.968,32.819 L105.468,33.606 Z" id="Fill-49" fill="#000000" mask="url(#mask-4)"></path>
                    <path d="M108.107,29.119 L110.056,29.119 L110.056,31.993 L110.08,31.993 C110.455,31.48 111.292,31.193 111.905,31.193 C113.304,31.193 113.991,32.005 113.991,33.342 L113.991,38.017 L112.042,38.017 L112.042,34.031 C112.042,33.007 111.492,32.768 111.067,32.768 C110.618,32.768 110.055,33.055 110.055,34.293 L110.055,38.017 L108.106,38.017 L108.106,29.119 L108.107,29.119 Z" id="Fill-50" fill="#000000" mask="url(#mask-4)"></path>
                    <path d="M115.744,31.368 L117.693,31.368 L117.693,31.955 C118.193,31.368 119.017,31.193 119.618,31.193 C121.192,31.193 121.63,32.105 121.63,33.105 L121.63,38.017 L119.681,38.017 L119.681,33.856 C119.681,33.206 119.481,32.768 118.731,32.768 C117.944,32.768 117.694,33.281 117.694,33.88 L117.694,38.017 L115.745,38.017 L115.745,31.368 L115.744,31.368 Z" id="Fill-51" fill="#000000" mask="url(#mask-4)"></path>
                    <path d="M124.855,34.693 C124.855,35.831 125.33,36.692 126.443,36.692 C127.554,36.692 128.029,35.831 128.029,34.618 C128.029,33.556 127.554,32.694 126.443,32.694 C125.33,32.694 124.855,33.555 124.855,34.693 M129.979,34.693 C129.979,36.93 128.517,38.192 126.443,38.192 C124.368,38.192 122.906,36.93 122.906,34.693 C122.906,32.456 124.368,31.194 126.443,31.194 C128.518,31.194 129.979,32.455 129.979,34.693" id="Fill-52" fill="#000000" mask="url(#mask-4)"></path>
                    <polygon id="Fill-53" fill="#000000" mask="url(#mask-4)" points="131.256 38.017 133.205 38.017 133.205 29.12 131.256 29.12"></polygon>
                    <path d="M136.431,34.693 C136.431,35.831 136.906,36.692 138.018,36.692 C139.13,36.692 139.605,35.831 139.605,34.618 C139.605,33.556 139.13,32.694 138.018,32.694 C136.906,32.694 136.431,33.555 136.431,34.693 M141.555,34.693 C141.555,36.93 140.092,38.192 138.018,38.192 C135.944,38.192 134.481,36.93 134.481,34.693 C134.481,32.456 135.944,31.194 138.018,31.194 C140.092,31.194 141.555,32.455 141.555,34.693" id="Fill-54" fill="#000000" mask="url(#mask-4)"></path>
                    <path d="M145.53,32.617 C144.918,32.617 144.305,32.968 144.305,34.404 C144.305,35.205 144.48,36.179 145.505,36.179 C146.754,36.179 146.792001,35.091 146.792001,34.404 C146.793,33.055 146.13,32.617 145.53,32.617 M148.667,31.368 L148.667,38.029 C148.667,40.14 146.505,40.217 145.48,40.217 C143.48,40.217 142.431,39.541 142.418,37.916 L144.443,37.916 C144.455,38.642 144.867,38.941 145.568,38.941 C146.317,38.941 146.779,38.791 146.779,37.816 L146.779,37.054 C146.355,37.466 145.53,37.603 144.943,37.603 C143.08,37.603 142.355,36.104 142.355,34.429 C142.355,32.804 143.205,31.193 144.967,31.193 C145.693,31.193 146.317,31.355 146.866,31.892 L146.866,31.368 C146.866,31.368 148.667,31.368 148.667,31.368" id="Fill-55" fill="#000000" mask="url(#mask-4)"></path>
                    <path d="M150.105,38.692 C150.33,38.705 150.555,38.717 150.767,38.717 C151.355,38.717 151.667,38.604 151.667,38.229 C151.667,38.129 151.654,38.017 151.491,37.517 L149.542,31.369 L151.592,31.369 L152.667,36.442 L152.691,36.442 L153.778,31.369 L155.89,31.369 L153.553,38.455 C153.217,39.467 152.793,40.217 151.643,40.217 L150.106,40.217 L150.106,38.692 L150.105,38.692 Z" id="Fill-56" fill="#000000" mask="url(#mask-4)"></path>
                </g>
            </g>
        </g>
    </g>
</svg>