<?xml version="1.0" encoding="UTF-8"?>
<svg width="72px" height="38px" viewBox="0 0 72 38" version="1.1" xmlns="http://www.w3.org/2000/svg" xmlns:xlink="http://www.w3.org/1999/xlink">
    <title>Group 8 Copy</title>
    <g id="Symbols" stroke="none" stroke-width="1" fill="none" fill-rule="evenodd">
        <g id="Footer" transform="translate(-116.000000, -197.000000)">
            <g id="Group-8-Copy" transform="translate(116.000000, 197.000000)">
                <polygon id="Fill-1" fill="#B6B3B2" points="52 8 72 8 72 0 52 0"></polygon>
                <polygon id="Fill-2" fill="#B6B3B2" points="13 26 21 26 21 0 13 0"></polygon>
                <polygon id="Fill-3" fill="#B6B3B2" points="26 38 34 38 34 0 26 0"></polygon>
                <polygon id="Fill-4" fill="#B6B3B2" points="0 38 8 38 8 0 0 0"></polygon>
                <polygon id="Fill-5" fill="#B6B3B2" points="52 37.999 60 37.999 60 13 52 13"></polygon>
                <polygon id="Fill-6" fill="#B6B3B2" points="39 8 47 8 47 0 39 0"></polygon>
                <polygon id="Fill-7" fill="#FFFFFF" points="39 38 47 38 47 13 39 13"></polygon>
            </g>
        </g>
    </g>
</svg>